<?xml version="1.0" standalone="no"?>
<!DOCTYPE svg PUBLIC "-//W3C//DTD SVG 20010904//EN"
 "http://www.w3.org/TR/2001/REC-SVG-20010904/DTD/svg10.dtd">
<svg version="1.0" xmlns="http://www.w3.org/2000/svg"
 width="512.000000pt" height="512.000000pt" viewBox="0 0 512.000000 512.000000"
 preserveAspectRatio="xMidYMid meet">

<g transform="translate(0.000000,512.000000) scale(0.100000,-0.100000)"
fill="#000000" stroke="none">
<path d="M1349 4522 c-374 -384 -679 -980 -804 -1575 -84 -397 -107 -837 -56
-1072 85 -394 338 -745 719 -998 306 -204 688 -337 1080 -378 171 -17 546 -7
697 20 876 155 1509 683 1650 1376 59 287 6 847 -121 1295 -147 517 -450 1051
-777 1368 -74 71 -76 72 -128 72 l-54 0 -90 -92 c-165 -168 -332 -396 -464
-633 -33 -60 -62 -112 -63 -116 -2 -3 -28 -3 -58 2 -115 17 -394 22 -534 10
-76 -7 -144 -14 -150 -17 -6 -2 -31 33 -55 79 -142 264 -362 565 -529 720 -48
44 -55 47 -104 47 l-53 0 -106 -108z m121 -2241 c0 -253 -4 -462 -8 -465 -15
-9 -167 49 -233 89 -86 52 -224 192 -284 288 l-48 78 19 42 c44 97 172 244
274 314 82 56 208 111 258 112 l22 1 0 -459z m385 426 c170 -69 321 -207 414
-377 l30 -54 -26 -45 c-49 -86 -137 -193 -207 -253 -77 -64 -200 -130 -283
-152 l-53 -14 0 464 0 464 23 0 c12 0 58 -15 102 -33z m1535 -431 l0 -464 -52
14 c-84 22 -207 88 -284 152 -70 60 -158 167 -207 253 l-26 45 30 54 c64 118
164 229 272 303 66 44 208 107 245 107 l22 0 0 -464z m389 431 c172 -69 329
-212 416 -379 l28 -53 -44 -75 c-55 -93 -201 -243 -288 -295 -67 -40 -218 -98
-233 -89 -4 3 -8 213 -8 466 l0 461 34 -6 c19 -3 62 -17 95 -30z"/>
</g>
</svg>
